<svg width="53" height="53" viewBox="0 0 53 53" fill="none" xmlns="http://www.w3.org/2000/svg">
<path d="M26.5 20.1897C25.252 20.1902 24.0322 20.5606 22.9948 21.2543C21.9574 21.948 21.149 22.9337 20.6717 24.0868C20.1945 25.2399 20.0698 26.5086 20.3136 27.7325C20.5573 28.9565 21.1585 30.0806 22.0411 30.9629C22.9237 31.8452 24.0481 32.4459 25.2722 32.6892C26.4962 32.9325 27.7648 32.8074 28.9178 32.3297C30.0707 31.8521 31.0561 31.0433 31.7494 30.0056C32.4426 28.9679 32.8127 27.748 32.8127 26.5C32.8114 24.8264 32.1459 23.2217 30.9622 22.0385C29.7786 20.8553 28.1736 20.1903 26.5 20.1897ZM41.2536 15.3392C40.9324 14.5251 40.4473 13.7857 39.8284 13.1668C39.2096 12.548 38.4701 12.0629 37.656 11.7416C35.1716 10.7609 29.2565 10.9809 26.5 10.9809C23.7435 10.9809 17.8343 10.7526 15.3428 11.7416C14.5287 12.0629 13.7893 12.548 13.1704 13.1668C12.5515 13.7857 12.0664 14.5251 11.7452 15.3392C10.7656 17.8236 10.9845 23.7447 10.9845 26.4988C10.9845 29.2529 10.7656 35.1669 11.7499 37.6596C12.0712 38.4737 12.5563 39.2131 13.1751 39.832C13.794 40.4508 14.5334 40.9359 15.3475 41.2572C17.8319 42.2379 23.7471 42.0179 26.5047 42.0179C29.2624 42.0179 35.1693 42.2462 37.6608 41.2572C38.4749 40.9359 39.2143 40.4508 39.8332 39.832C40.452 39.2131 40.9371 38.4737 41.2584 37.6596C42.2462 35.1752 42.0191 29.2541 42.0191 26.5C42.0191 23.7459 42.2462 17.8331 41.2584 15.3404L41.2536 15.3392ZM26.5 36.2009C24.5813 36.2009 22.7058 35.6319 21.1105 34.566C19.5152 33.5 18.2718 31.985 17.5375 30.2124C16.8033 28.4398 16.6112 26.4892 16.9855 24.6075C17.3598 22.7257 18.2837 20.9971 19.6404 19.6404C20.9971 18.2837 22.7257 17.3598 24.6075 16.9855C26.4892 16.6112 28.4398 16.8033 30.2124 17.5375C31.985 18.2718 33.5 19.5152 34.566 21.1105C35.6319 22.7058 36.2009 24.5813 36.2009 26.5C36.2024 27.7744 35.9526 29.0365 35.4656 30.2142C34.9787 31.3919 34.2642 32.4619 33.363 33.363C32.4619 34.2642 31.3919 34.9787 30.2142 35.4656C29.0365 35.9526 27.7744 36.2024 26.5 36.2009ZM36.6008 18.6565C36.1529 18.6567 35.715 18.5241 35.3424 18.2754C34.9699 18.0268 34.6795 17.6732 34.5079 17.2595C34.3364 16.8458 34.2914 16.3904 34.3786 15.9511C34.4658 15.5118 34.6814 15.1082 34.998 14.7914C35.3147 14.4746 35.7181 14.2589 36.1574 14.1714C36.5967 14.0839 37.052 14.1287 37.4658 14.3001C37.8796 14.4714 38.2334 14.7616 38.4822 15.134C38.7311 15.5064 38.8639 15.9443 38.8639 16.3921C38.8652 16.6896 38.8077 16.9843 38.6947 17.2595C38.5818 17.5347 38.4157 17.7848 38.2059 17.9956C37.996 18.2064 37.7467 18.3737 37.472 18.488C37.1974 18.6022 36.9029 18.6611 36.6055 18.6612L36.6008 18.6565ZM47.3214 0H5.67857C4.17252 0 2.72815 0.598276 1.66322 1.66322C0.598276 2.72815 0 4.17252 0 5.67857L0 47.3214C0 48.8275 0.598276 50.2718 1.66322 51.3368C2.72815 52.4017 4.17252 53 5.67857 53H47.3214C48.8275 53 50.2718 52.4017 51.3368 51.3368C52.4017 50.2718 53 48.8275 53 47.3214V5.67857C53 4.17252 52.4017 2.72815 51.3368 1.66322C50.2718 0.598276 48.8275 0 47.3214 0ZM45.2961 34.308C45.1435 37.3402 44.4514 40.0268 42.2379 42.2344C40.0245 44.4419 37.3402 45.1482 34.3116 45.2925C31.1872 45.4688 21.8199 45.4688 18.6955 45.2925C15.6634 45.1399 12.9862 44.4467 10.7692 42.2344C8.55217 40.0221 7.85536 37.3342 7.71103 34.308C7.53475 31.1825 7.53475 21.814 7.71103 18.692C7.86364 15.6598 8.54743 12.9732 10.7692 10.7656C12.9909 8.55808 15.6752 7.86009 18.6955 7.71576C21.8199 7.53949 31.1872 7.53949 34.3116 7.71576C37.3437 7.86837 40.0292 8.56163 42.2379 10.7739C44.4467 12.9862 45.1517 15.674 45.2961 18.7062C45.4723 21.8199 45.4723 31.1801 45.2961 34.308Z" fill="black"/>
</svg>
