<svg width="53" height="54" viewBox="0 0 53 54" fill="none" xmlns="http://www.w3.org/2000/svg">
<path d="M26.5 20.6897C25.252 20.6902 24.0322 21.0606 22.9948 21.7543C21.9574 22.448 21.149 23.4337 20.6717 24.5868C20.1945 25.7399 20.0698 27.0086 20.3136 28.2325C20.5573 29.4565 21.1585 30.5806 22.0411 31.4629C22.9237 32.3452 24.0481 32.9459 25.2722 33.1892C26.4962 33.4325 27.7648 33.3074 28.9178 32.8297C30.0707 32.3521 31.0561 31.5433 31.7494 30.5056C32.4426 29.4679 32.8127 28.248 32.8127 27C32.8114 25.3264 32.1459 23.7217 30.9622 22.5385C29.7786 21.3553 28.1736 20.6903 26.5 20.6897ZM41.2536 15.8392C40.9324 15.0251 40.4473 14.2857 39.8284 13.6668C39.2096 13.048 38.4701 12.5629 37.656 12.2416C35.1716 11.2609 29.2565 11.4809 26.5 11.4809C23.7435 11.4809 17.8343 11.2526 15.3428 12.2416C14.5287 12.5629 13.7893 13.048 13.1704 13.6668C12.5515 14.2857 12.0664 15.0251 11.7452 15.8392C10.7656 18.3236 10.9845 24.2447 10.9845 26.9988C10.9845 29.7529 10.7656 35.6669 11.7499 38.1596C12.0712 38.9737 12.5563 39.7131 13.1751 40.332C13.794 40.9508 14.5334 41.4359 15.3475 41.7572C17.8319 42.7379 23.7471 42.5179 26.5047 42.5179C29.2624 42.5179 35.1693 42.7462 37.6608 41.7572C38.4749 41.4359 39.2143 40.9508 39.8332 40.332C40.452 39.7131 40.9371 38.9737 41.2584 38.1596C42.2462 35.6752 42.0191 29.7541 42.0191 27C42.0191 24.2459 42.2462 18.3331 41.2584 15.8404L41.2536 15.8392ZM26.5 36.7009C24.5813 36.7009 22.7058 36.1319 21.1105 35.066C19.5152 34 18.2718 32.485 17.5375 30.7124C16.8033 28.9398 16.6112 26.9892 16.9855 25.1075C17.3598 23.2257 18.2837 21.4971 19.6404 20.1404C20.9971 18.7837 22.7257 17.8598 24.6075 17.4855C26.4892 17.1112 28.4398 17.3033 30.2124 18.0375C31.985 18.7718 33.5 20.0152 34.566 21.6105C35.6319 23.2058 36.2009 25.0813 36.2009 27C36.2024 28.2744 35.9526 29.5365 35.4656 30.7142C34.9787 31.8919 34.2642 32.9619 33.363 33.863C32.4619 34.7642 31.3919 35.4787 30.2142 35.9656C29.0365 36.4526 27.7744 36.7024 26.5 36.7009ZM36.6008 19.1565C36.1529 19.1567 35.715 19.0241 35.3424 18.7754C34.9699 18.5268 34.6795 18.1732 34.5079 17.7595C34.3364 17.3458 34.2914 16.8904 34.3786 16.4511C34.4658 16.0118 34.6814 15.6082 34.998 15.2914C35.3147 14.9746 35.7181 14.7589 36.1574 14.6714C36.5967 14.5839 37.052 14.6287 37.4658 14.8001C37.8796 14.9714 38.2334 15.2616 38.4822 15.634C38.7311 16.0064 38.8639 16.4443 38.8639 16.8921C38.8652 17.1896 38.8077 17.4843 38.6947 17.7595C38.5818 18.0347 38.4157 18.2848 38.2059 18.4956C37.996 18.7064 37.7467 18.8737 37.472 18.988C37.1974 19.1022 36.9029 19.1611 36.6055 19.1612L36.6008 19.1565ZM47.3214 0.5H5.67857C4.17252 0.5 2.72815 1.09828 1.66322 2.16322C0.598276 3.22815 0 4.67252 0 6.17857L0 47.8214C0 49.3275 0.598276 50.7718 1.66322 51.8368C2.72815 52.9017 4.17252 53.5 5.67857 53.5H47.3214C48.8275 53.5 50.2718 52.9017 51.3368 51.8368C52.4017 50.7718 53 49.3275 53 47.8214V6.17857C53 4.67252 52.4017 3.22815 51.3368 2.16322C50.2718 1.09828 48.8275 0.5 47.3214 0.5ZM45.2961 34.808C45.1435 37.8402 44.4514 40.5268 42.2379 42.7344C40.0245 44.9419 37.3402 45.6482 34.3116 45.7925C31.1872 45.9688 21.8199 45.9688 18.6955 45.7925C15.6634 45.6399 12.9862 44.9467 10.7692 42.7344C8.55217 40.5221 7.85536 37.8342 7.71103 34.808C7.53475 31.6825 7.53475 22.314 7.71103 19.192C7.86364 16.1598 8.54743 13.4732 10.7692 11.2656C12.9909 9.05808 15.6752 8.36009 18.6955 8.21576C21.8199 8.03949 31.1872 8.03949 34.3116 8.21576C37.3437 8.36837 40.0292 9.06163 42.2379 11.2739C44.4467 13.4862 45.1517 16.174 45.2961 19.2062C45.4723 22.3199 45.4723 31.6801 45.2961 34.808Z" fill="white"/>
</svg>
