<svg width="275" height="40" viewBox="0 0 275 40" fill="none" xmlns="http://www.w3.org/2000/svg">
<path d="M19.1365 0.805984H2.89896V8.64479H18.0166V27.7379C18.0166 33.8969 13.7053 38.8802 8.33013 38.8802C5.81051 38.8802 3.45887 37.7603 1.61115 35.7446L0.827274 36.5285C2.84297 38.7682 5.53056 40 8.33013 40C11.2417 40 13.9853 38.7122 16.001 36.4165C18.0166 34.0649 19.1365 31.0414 19.1365 27.7379V0.805984ZM44.5693 0.805984V28.1298C44.5693 34.0649 40.09 38.8802 34.6588 38.8802C33.539 38.8802 32.4751 38.6562 31.4673 38.3203V0.805984H23.6285V28.1298C23.6285 31.3213 24.7483 34.2889 26.82 36.5285C28.8917 38.7682 31.6912 40 34.6588 40C37.5703 40 40.3699 38.7682 42.4416 36.5285C44.5133 34.2889 45.6891 31.3213 45.6891 28.1298V0.805984H44.5693ZM73.0484 23.0346C71.5926 19.4511 68.5691 16.7076 64.2577 15.1398C63.6978 14.9158 63.1379 14.7479 62.634 14.5239V1.92582C64.5377 1.86982 66.2174 2.48573 67.3932 3.10163C68.5691 3.71754 69.3529 4.33345 69.3529 4.33345L70.0808 3.49358C70.0248 3.43758 69.2409 2.76569 67.8972 2.09379C66.2174 1.25392 63.5858 0.358055 60.7302 1.08594C58.7146 1.58986 57.0908 2.6537 56.1389 4.22146C55.0751 5.90121 55.0751 7.52496 55.1311 8.14087C55.4111 11.6683 57.9307 14.02 63.8658 16.2036C64.7056 16.4836 65.4895 16.8755 66.2174 17.2675V38.2643V38.3203C63.4178 39.3281 60.3383 38.9362 57.2588 37.0884C55.2991 35.9126 53.8433 34.3449 52.7795 32.4971C51.8836 30.8734 51.4917 29.3056 51.2677 28.2978L50.1479 28.5218C50.3718 29.6416 50.8198 31.3213 51.7716 33.0571C52.9474 35.0728 54.5712 36.7525 56.6429 38.0403C59.1065 39.4961 61.2342 40 63.0819 40C64.4817 40 65.6575 39.72 66.6094 39.3281C69.8009 38.1523 72.3765 35.2407 73.4403 31.8252C74.3362 29.0817 74.1682 25.7782 73.0484 23.0346ZM99.5223 0.805984H76.2298V1.92582H83.9566V40H91.7954V1.92582H99.5223V0.805984ZM149.127 12.2282C148.175 9.8766 146.72 7.74892 144.872 6.06918C141.288 2.6537 136.305 0.805984 130.874 0.805984H123.035V40H130.874C136.305 40 141.288 38.1523 144.872 34.7368C146.72 33.0571 148.175 30.9294 149.127 28.5777C150.191 26.1141 150.695 23.3705 150.695 20.403C150.695 17.4354 150.191 14.6919 149.127 12.2282ZM148.119 28.1298C147.167 30.3695 145.824 32.3292 144.088 33.9529C140.728 37.1444 136.025 38.8802 130.874 38.8802V1.92582C136.025 1.92582 140.728 3.66155 144.088 6.85306C145.824 8.47681 147.167 10.4365 148.119 12.6762C149.071 14.9718 149.575 17.6034 149.575 20.403C149.575 23.2026 149.071 25.7782 148.119 28.1298ZM163.529 40L167.841 28.0178H177.695L181.894 40H183.07L169.352 0.805984L168.96 1.86982L155.187 40H163.529ZM172.88 14.1879L177.303 26.898H168.289L172.88 14.1879ZM187.557 40H195.395V14.7479L212.137 40H212.193V0.805984H211.073V36.3606L187.557 0.805984V40ZM245.649 34.7368C244.418 35.8566 243.018 36.7525 241.506 37.4244C239.378 38.3762 237.195 38.8802 234.899 38.8802C232.547 38.8802 230.364 38.3762 228.236 37.4244C226.948 36.8645 225.716 36.0806 224.597 35.1847V5.67724C225.716 4.72539 226.948 3.9975 228.236 3.38159C230.364 2.42974 232.547 1.98181 234.899 1.98181C237.195 1.98181 239.378 2.42974 241.506 3.38159C242.962 4.05349 244.306 4.94935 245.537 5.9572L246.153 5.06134C243.074 2.42974 239.154 0.861975 234.899 0.861975C224.821 0.861975 216.646 9.59664 216.646 20.403C216.646 31.2093 224.821 40 234.899 40C239.21 40 243.186 38.3762 246.321 35.6887L245.649 34.7368ZM250.82 0.805984V40H274.169V38.8802H258.659V24.6024H268.01V23.4825H258.659V1.92582H274.169V0.805984H250.82Z" fill="white"/>
</svg>
