<svg width="70" height="100" viewBox="0 0 70 100" fill="none" xmlns="http://www.w3.org/2000/svg">
<path d="M34.8333 47.4164C31.5339 47.4164 28.3696 46.1057 26.0366 43.7727C23.7035 41.4396 22.3929 38.2753 22.3929 34.9759C22.3929 31.6765 23.7035 28.5122 26.0366 26.1792C28.3696 23.8461 31.5339 22.5354 34.8333 22.5354C38.1328 22.5354 41.297 23.8461 43.6301 26.1792C45.9631 28.5122 47.2738 31.6765 47.2738 34.9759C47.2738 36.6096 46.952 38.2273 46.3268 39.7367C45.7016 41.246 44.7853 42.6174 43.6301 43.7727C42.4749 44.9279 41.1035 45.8442 39.5941 46.4694C38.0848 47.0946 36.467 47.4164 34.8333 47.4164ZM34.8333 0.142578C25.595 0.142578 16.735 3.81251 10.2024 10.345C3.66993 16.8775 0 25.7375 0 34.9759C0 61.1009 34.8333 99.6664 34.8333 99.6664C34.8333 99.6664 69.6667 61.1009 69.6667 34.9759C69.6667 25.7375 65.9967 16.8775 59.4642 10.345C52.9317 3.81251 44.0717 0.142578 34.8333 0.142578Z" fill="#101010"/>
</svg>
